<svg xmlns="http://www.w3.org/2000/svg" xmlns:svg="http://www.w3.org/2000/svg" id="svg7384" width="16" height="16" version="1.1"><metadata id="metadata90"/><title id="title9167">Gnome Symbolic Icon Theme</title><g id="layer9" display="inline" transform="translate(-101,-277)"><rect id="rect4906-43-6" width="2.083" height="1.357" x="103.436" y="284.357" fill="#bebebe" fill-opacity="1" fill-rule="nonzero" stroke="none" stroke-width="2" color="#bebebe" display="inline" enable-background="new" opacity=".7" overflow="visible" rx=".347" ry=".339" visibility="visible" style="marker:none"/><rect id="rect4906-4-6-6" width="2.082" height="1.357" x="112.461" y="284.357" fill="#bebebe" fill-opacity="1" fill-rule="nonzero" stroke="none" stroke-width="2" color="#bebebe" display="inline" enable-background="new" opacity=".7" overflow="visible" rx=".347" ry=".339" visibility="visible" style="marker:none"/><rect id="rect8386" width="2.059" height="1.373" x="-133.171" y="279.403" fill="#bebebe" fill-opacity="1" fill-rule="nonzero" stroke="none" stroke-width="2" color="#bebebe" display="inline" enable-background="new" opacity=".7" overflow="visible" rx=".343" ry=".343" transform="matrix(0.71510951,-0.69901244,0.71510951,0.69901244,0,0)" visibility="visible" style="marker:none"/><rect id="rect8388" width="2.059" height="1.373" x="-124.248" y="279.403" fill="#bebebe" fill-opacity="1" fill-rule="nonzero" stroke="none" stroke-width="2" color="#bebebe" display="inline" enable-background="new" opacity=".7" overflow="visible" rx=".343" ry=".343" transform="matrix(0.71510951,-0.69901244,0.71510951,0.69901244,0,0)" visibility="visible" style="marker:none"/><rect id="rect8390" width="2.036" height="1.388" x="-290.464" y="108.296" fill="#bebebe" fill-opacity="1" fill-rule="nonzero" stroke="none" stroke-width="2" color="#bebebe" display="inline" enable-background="new" opacity=".7" overflow="visible" rx=".339" ry=".347" transform="matrix(0,-1,1,0,0,0)" visibility="visible" style="marker:none"/><rect id="rect8392" width="2.035" height="1.388" x="-281.643" y="108.296" fill="#bebebe" fill-opacity="1" fill-rule="nonzero" stroke="none" stroke-width="2" color="#bebebe" display="inline" enable-background="new" opacity=".7" overflow="visible" rx=".339" ry=".347" transform="matrix(0,-1,1,0,0,0)" visibility="visible" style="marker:none"/><rect id="rect8394" width="2.059" height="1.373" x="-285.581" y="-128.366" fill="#bebebe" fill-opacity="1" fill-rule="nonzero" stroke="none" stroke-width="2" color="#bebebe" display="inline" enable-background="new" opacity=".7" overflow="visible" rx=".343" ry=".343" transform="matrix(-0.71510951,-0.69901244,0.71510951,-0.69901244,0,0)" visibility="visible" style="marker:none"/><rect id="rect8396" width="2.059" height="1.373" x="-276.657" y="-128.366" fill="#bebebe" fill-opacity="1" fill-rule="nonzero" stroke="none" stroke-width="2" color="#bebebe" display="inline" enable-background="new" opacity=".7" overflow="visible" rx=".343" ry=".343" transform="matrix(-0.71510951,-0.69901244,0.71510951,-0.69901244,0,0)" visibility="visible" style="marker:none"/><path id="path3807-1-1-9-38-4" fill="#bebebe" fill-opacity="1" fill-rule="nonzero" stroke="none" stroke-width="2" d="m 107.42521,282.69964 0,4.68792 0.42057,0 0.0437,0 c 0.0811,4.5e-4 0.16137,-0.0176 0.23205,-0.0586 l 3.24866,-1.87517 c 0.14419,-0.0807 0.21756,-0.24538 0.21756,-0.41019 0,-0.1648 -0.0734,-0.3296 -0.21756,-0.41021 l -3.24866,-1.87517 c -0.0706,-0.0404 -0.1509,-0.0591 -0.23205,-0.0586 l -0.0437,0 z" color="#000" direction="ltr" display="inline" enable-background="accumulate" font-family="Bitstream Vera Sans" font-size="medium" font-stretch="normal" font-style="normal" font-variant="normal" font-weight="normal" letter-spacing="normal" overflow="visible" text-anchor="start" text-decoration="none" visibility="visible" word-spacing="normal" writing-mode="lr-tb" style="line-height:normal;-inkscape-font-specification:'Bitstream Vera Sans';text-indent:0;text-align:start;text-decoration-line:none;text-transform:none;block-progression:tb;marker:none"/><path id="path8781" fill="#bebebe" fill-opacity="1" stroke="none" stroke-width=".998" d="m 109,277 c -4.40886,0 -8,3.59113 -8,8 0,4.40881 3.59114,8 8,8 4.40881,0 8,-3.59119 8,-8 0,-4.40887 -3.59119,-8 -8,-8 z m 0,1.14286 c 3.79121,0 6.85714,3.06587 6.85714,6.85714 0,3.79121 -3.06593,6.85714 -6.85714,6.85714 -3.79126,0 -6.85714,-3.06593 -6.85714,-6.85714 0,-3.79127 3.06588,-6.85714 6.85714,-6.85714 z" baseline-shift="baseline" color="#bebebe" direction="ltr" display="inline" enable-background="accumulate" font-family="Andale Mono" font-size="medium" font-stretch="normal" font-style="normal" font-variant="normal" font-weight="normal" letter-spacing="normal" overflow="visible" text-anchor="start" text-decoration="none" visibility="visible" word-spacing="normal" writing-mode="lr-tb" style="line-height:normal;-inkscape-font-specification:Sans;text-indent:0;text-align:start;text-decoration-line:none;text-transform:none;block-progression:tb;marker:none"/></g></svg>